<svg width="150" height="150" viewBox="0 0 150 150" fill="none" xmlns="http://www.w3.org/2000/svg">
<path d="M0.159668 145.282H4.1921V149.314H0.159668V145.282Z" fill="url(#paint0_linear)"/>
<path d="M0.159668 121.087H4.1921V125.119H0.159668V121.087Z" fill="url(#paint1_linear)"/>
<path d="M0.159668 96.8924H4.1921V100.925H0.159668V96.8924Z" fill="url(#paint2_linear)"/>
<path d="M0.159668 72.6978H4.1921V76.7302H0.159668V72.6978Z" fill="url(#paint3_linear)"/>
<path d="M0.159668 48.5032H4.1921V52.5356H0.159668V48.5032Z" fill="url(#paint4_linear)"/>
<path d="M0.159668 24.3086H4.1921V28.341H0.159668V24.3086Z" fill="url(#paint5_linear)"/>
<path d="M0.159668 0.114014H4.1921V4.14645H0.159668V0.114014Z" fill="url(#paint6_linear)"/>
<path d="M24.3543 145.282H28.3867V149.314H24.3543V145.282Z" fill="url(#paint7_linear)"/>
<path d="M24.3543 121.087H28.3867V125.119H24.3543V121.087Z" fill="url(#paint8_linear)"/>
<path d="M24.3543 96.8924H28.3867V100.925H24.3543V96.8924Z" fill="url(#paint9_linear)"/>
<path d="M24.3543 72.6978H28.3867V76.7302H24.3543V72.6978Z" fill="url(#paint10_linear)"/>
<path d="M24.3543 48.5032H28.3867V52.5356H24.3543V48.5032Z" fill="url(#paint11_linear)"/>
<path d="M24.3543 24.3086H28.3867V28.341H24.3543V24.3086Z" fill="url(#paint12_linear)"/>
<path d="M24.3543 0.114014H28.3867V4.14645H24.3543V0.114014Z" fill="url(#paint13_linear)"/>
<path d="M48.5488 145.282H52.5813V149.314H48.5488V145.282Z" fill="url(#paint14_linear)"/>
<path d="M48.5488 121.087H52.5813V125.119H48.5488V121.087Z" fill="url(#paint15_linear)"/>
<path d="M48.5488 96.8924H52.5813V100.925H48.5488V96.8924Z" fill="url(#paint16_linear)"/>
<path d="M48.5488 72.6978H52.5813V76.7302H48.5488V72.6978Z" fill="url(#paint17_linear)"/>
<path d="M48.5488 48.5032H52.5813V52.5356H48.5488V48.5032Z" fill="url(#paint18_linear)"/>
<path d="M48.5488 24.3086H52.5813V28.341H48.5488V24.3086Z" fill="url(#paint19_linear)"/>
<path d="M48.5488 0.114014H52.5813V4.14645H48.5488V0.114014Z" fill="url(#paint20_linear)"/>
<path d="M72.7434 145.282H76.7759V149.314H72.7434V145.282Z" fill="url(#paint21_linear)"/>
<path d="M72.7434 121.087H76.7759V125.119H72.7434V121.087Z" fill="url(#paint22_linear)"/>
<path d="M72.7434 96.8924H76.7759V100.925H72.7434V96.8924Z" fill="url(#paint23_linear)"/>
<path d="M72.7434 72.6978H76.7759V76.7302H72.7434V72.6978Z" fill="url(#paint24_linear)"/>
<path d="M72.7434 48.5032H76.7759V52.5356H72.7434V48.5032Z" fill="url(#paint25_linear)"/>
<path d="M72.7434 24.3086H76.7759V28.341H72.7434V24.3086Z" fill="url(#paint26_linear)"/>
<path d="M72.7434 0.114014H76.7759V4.14645H72.7434V0.114014Z" fill="url(#paint27_linear)"/>
<path d="M96.938 145.282H100.97V149.314H96.938V145.282Z" fill="url(#paint28_linear)"/>
<path d="M96.938 121.087H100.97V125.119H96.938V121.087Z" fill="url(#paint29_linear)"/>
<path d="M96.938 96.8924H100.97V100.925H96.938V96.8924Z" fill="url(#paint30_linear)"/>
<path d="M96.938 72.6978H100.97V76.7302H96.938V72.6978Z" fill="url(#paint31_linear)"/>
<path d="M96.938 48.5032H100.97V52.5356H96.938V48.5032Z" fill="url(#paint32_linear)"/>
<path d="M96.938 24.3086H100.97V28.341H96.938V24.3086Z" fill="url(#paint33_linear)"/>
<path d="M96.938 0.114014H100.97V4.14645H96.938V0.114014Z" fill="url(#paint34_linear)"/>
<path d="M121.133 145.282H125.165V149.314H121.133V145.282Z" fill="url(#paint35_linear)"/>
<path d="M121.133 121.087H125.165V125.119H121.133V121.087Z" fill="url(#paint36_linear)"/>
<path d="M121.133 96.8924H125.165V100.925H121.133V96.8924Z" fill="url(#paint37_linear)"/>
<path d="M121.133 72.6978H125.165V76.7302H121.133V72.6978Z" fill="url(#paint38_linear)"/>
<path d="M121.133 48.5032H125.165V52.5356H121.133V48.5032Z" fill="url(#paint39_linear)"/>
<path d="M121.133 24.3086H125.165V28.341H121.133V24.3086Z" fill="url(#paint40_linear)"/>
<path d="M121.133 0.114014H125.165V4.14645H121.133V0.114014Z" fill="url(#paint41_linear)"/>
<path d="M145.327 145.282H149.36V149.314H145.327V145.282Z" fill="url(#paint42_linear)"/>
<path d="M145.327 121.087H149.36V125.119H145.327V121.087Z" fill="url(#paint43_linear)"/>
<path d="M145.327 96.8924H149.36V100.925H145.327V96.8924Z" fill="url(#paint44_linear)"/>
<path d="M145.327 72.6978H149.36V76.7302H145.327V72.6978Z" fill="url(#paint45_linear)"/>
<path d="M145.327 48.5032H149.36V52.5356H145.327V48.5032Z" fill="url(#paint46_linear)"/>
<path d="M145.327 24.3086H149.36V28.341H145.327V24.3086Z" fill="url(#paint47_linear)"/>
<path d="M145.327 0.114014H149.36V4.14645H145.327V0.114014Z" fill="url(#paint48_linear)"/>
<defs>
<linearGradient id="paint0_linear" x1="-3.10408" y1="-13.4072" x2="162.415" y2="174.025" gradientUnits="userSpaceOnUse">
<stop stop-color="#C3C6D0"/>
<stop offset="1" stop-color="#C3C6D0" stop-opacity="0"/>
</linearGradient>
<linearGradient id="paint1_linear" x1="-3.10408" y1="-13.4072" x2="162.415" y2="174.025" gradientUnits="userSpaceOnUse">
<stop stop-color="#C3C6D0"/>
<stop offset="1" stop-color="#C3C6D0" stop-opacity="0"/>
</linearGradient>
<linearGradient id="paint2_linear" x1="-3.10408" y1="-13.4072" x2="162.415" y2="174.025" gradientUnits="userSpaceOnUse">
<stop stop-color="#C3C6D0"/>
<stop offset="1" stop-color="#C3C6D0" stop-opacity="0"/>
</linearGradient>
<linearGradient id="paint3_linear" x1="-3.10408" y1="-13.4072" x2="162.415" y2="174.025" gradientUnits="userSpaceOnUse">
<stop stop-color="#C3C6D0"/>
<stop offset="1" stop-color="#C3C6D0" stop-opacity="0"/>
</linearGradient>
<linearGradient id="paint4_linear" x1="-3.10408" y1="-13.4072" x2="162.415" y2="174.025" gradientUnits="userSpaceOnUse">
<stop stop-color="#C3C6D0"/>
<stop offset="1" stop-color="#C3C6D0" stop-opacity="0"/>
</linearGradient>
<linearGradient id="paint5_linear" x1="-3.10408" y1="-13.4072" x2="162.415" y2="174.025" gradientUnits="userSpaceOnUse">
<stop stop-color="#C3C6D0"/>
<stop offset="1" stop-color="#C3C6D0" stop-opacity="0"/>
</linearGradient>
<linearGradient id="paint6_linear" x1="-3.10408" y1="-13.4072" x2="162.415" y2="174.025" gradientUnits="userSpaceOnUse">
<stop stop-color="#C3C6D0"/>
<stop offset="1" stop-color="#C3C6D0" stop-opacity="0"/>
</linearGradient>
<linearGradient id="paint7_linear" x1="-3.10408" y1="-13.4072" x2="162.415" y2="174.025" gradientUnits="userSpaceOnUse">
<stop stop-color="#C3C6D0"/>
<stop offset="1" stop-color="#C3C6D0" stop-opacity="0"/>
</linearGradient>
<linearGradient id="paint8_linear" x1="-3.10408" y1="-13.4072" x2="162.415" y2="174.025" gradientUnits="userSpaceOnUse">
<stop stop-color="#C3C6D0"/>
<stop offset="1" stop-color="#C3C6D0" stop-opacity="0"/>
</linearGradient>
<linearGradient id="paint9_linear" x1="-3.10408" y1="-13.4072" x2="162.415" y2="174.025" gradientUnits="userSpaceOnUse">
<stop stop-color="#C3C6D0"/>
<stop offset="1" stop-color="#C3C6D0" stop-opacity="0"/>
</linearGradient>
<linearGradient id="paint10_linear" x1="-3.10408" y1="-13.4072" x2="162.415" y2="174.025" gradientUnits="userSpaceOnUse">
<stop stop-color="#C3C6D0"/>
<stop offset="1" stop-color="#C3C6D0" stop-opacity="0"/>
</linearGradient>
<linearGradient id="paint11_linear" x1="-3.10408" y1="-13.4072" x2="162.415" y2="174.025" gradientUnits="userSpaceOnUse">
<stop stop-color="#C3C6D0"/>
<stop offset="1" stop-color="#C3C6D0" stop-opacity="0"/>
</linearGradient>
<linearGradient id="paint12_linear" x1="-3.10408" y1="-13.4072" x2="162.415" y2="174.025" gradientUnits="userSpaceOnUse">
<stop stop-color="#C3C6D0"/>
<stop offset="1" stop-color="#C3C6D0" stop-opacity="0"/>
</linearGradient>
<linearGradient id="paint13_linear" x1="-3.10408" y1="-13.4072" x2="162.415" y2="174.025" gradientUnits="userSpaceOnUse">
<stop stop-color="#C3C6D0"/>
<stop offset="1" stop-color="#C3C6D0" stop-opacity="0"/>
</linearGradient>
<linearGradient id="paint14_linear" x1="-3.10408" y1="-13.4072" x2="162.415" y2="174.025" gradientUnits="userSpaceOnUse">
<stop stop-color="#C3C6D0"/>
<stop offset="1" stop-color="#C3C6D0" stop-opacity="0"/>
</linearGradient>
<linearGradient id="paint15_linear" x1="-3.10408" y1="-13.4072" x2="162.415" y2="174.025" gradientUnits="userSpaceOnUse">
<stop stop-color="#C3C6D0"/>
<stop offset="1" stop-color="#C3C6D0" stop-opacity="0"/>
</linearGradient>
<linearGradient id="paint16_linear" x1="-3.10408" y1="-13.4072" x2="162.415" y2="174.025" gradientUnits="userSpaceOnUse">
<stop stop-color="#C3C6D0"/>
<stop offset="1" stop-color="#C3C6D0" stop-opacity="0"/>
</linearGradient>
<linearGradient id="paint17_linear" x1="-3.10408" y1="-13.4072" x2="162.415" y2="174.025" gradientUnits="userSpaceOnUse">
<stop stop-color="#C3C6D0"/>
<stop offset="1" stop-color="#C3C6D0" stop-opacity="0"/>
</linearGradient>
<linearGradient id="paint18_linear" x1="-3.10408" y1="-13.4072" x2="162.415" y2="174.025" gradientUnits="userSpaceOnUse">
<stop stop-color="#C3C6D0"/>
<stop offset="1" stop-color="#C3C6D0" stop-opacity="0"/>
</linearGradient>
<linearGradient id="paint19_linear" x1="-3.10408" y1="-13.4072" x2="162.415" y2="174.025" gradientUnits="userSpaceOnUse">
<stop stop-color="#C3C6D0"/>
<stop offset="1" stop-color="#C3C6D0" stop-opacity="0"/>
</linearGradient>
<linearGradient id="paint20_linear" x1="-3.10408" y1="-13.4072" x2="162.415" y2="174.025" gradientUnits="userSpaceOnUse">
<stop stop-color="#C3C6D0"/>
<stop offset="1" stop-color="#C3C6D0" stop-opacity="0"/>
</linearGradient>
<linearGradient id="paint21_linear" x1="-3.10408" y1="-13.4072" x2="162.415" y2="174.025" gradientUnits="userSpaceOnUse">
<stop stop-color="#C3C6D0"/>
<stop offset="1" stop-color="#C3C6D0" stop-opacity="0"/>
</linearGradient>
<linearGradient id="paint22_linear" x1="-3.10408" y1="-13.4072" x2="162.415" y2="174.025" gradientUnits="userSpaceOnUse">
<stop stop-color="#C3C6D0"/>
<stop offset="1" stop-color="#C3C6D0" stop-opacity="0"/>
</linearGradient>
<linearGradient id="paint23_linear" x1="-3.10408" y1="-13.4072" x2="162.415" y2="174.025" gradientUnits="userSpaceOnUse">
<stop stop-color="#C3C6D0"/>
<stop offset="1" stop-color="#C3C6D0" stop-opacity="0"/>
</linearGradient>
<linearGradient id="paint24_linear" x1="-3.10408" y1="-13.4072" x2="162.415" y2="174.025" gradientUnits="userSpaceOnUse">
<stop stop-color="#C3C6D0"/>
<stop offset="1" stop-color="#C3C6D0" stop-opacity="0"/>
</linearGradient>
<linearGradient id="paint25_linear" x1="-3.10408" y1="-13.4072" x2="162.415" y2="174.025" gradientUnits="userSpaceOnUse">
<stop stop-color="#C3C6D0"/>
<stop offset="1" stop-color="#C3C6D0" stop-opacity="0"/>
</linearGradient>
<linearGradient id="paint26_linear" x1="-3.10408" y1="-13.4072" x2="162.415" y2="174.025" gradientUnits="userSpaceOnUse">
<stop stop-color="#C3C6D0"/>
<stop offset="1" stop-color="#C3C6D0" stop-opacity="0"/>
</linearGradient>
<linearGradient id="paint27_linear" x1="-3.10408" y1="-13.4072" x2="162.415" y2="174.025" gradientUnits="userSpaceOnUse">
<stop stop-color="#C3C6D0"/>
<stop offset="1" stop-color="#C3C6D0" stop-opacity="0"/>
</linearGradient>
<linearGradient id="paint28_linear" x1="-3.10408" y1="-13.4072" x2="162.415" y2="174.025" gradientUnits="userSpaceOnUse">
<stop stop-color="#C3C6D0"/>
<stop offset="1" stop-color="#C3C6D0" stop-opacity="0"/>
</linearGradient>
<linearGradient id="paint29_linear" x1="-3.10408" y1="-13.4072" x2="162.415" y2="174.025" gradientUnits="userSpaceOnUse">
<stop stop-color="#C3C6D0"/>
<stop offset="1" stop-color="#C3C6D0" stop-opacity="0"/>
</linearGradient>
<linearGradient id="paint30_linear" x1="-3.10408" y1="-13.4072" x2="162.415" y2="174.025" gradientUnits="userSpaceOnUse">
<stop stop-color="#C3C6D0"/>
<stop offset="1" stop-color="#C3C6D0" stop-opacity="0"/>
</linearGradient>
<linearGradient id="paint31_linear" x1="-3.10408" y1="-13.4072" x2="162.415" y2="174.025" gradientUnits="userSpaceOnUse">
<stop stop-color="#C3C6D0"/>
<stop offset="1" stop-color="#C3C6D0" stop-opacity="0"/>
</linearGradient>
<linearGradient id="paint32_linear" x1="-3.10408" y1="-13.4072" x2="162.415" y2="174.025" gradientUnits="userSpaceOnUse">
<stop stop-color="#C3C6D0"/>
<stop offset="1" stop-color="#C3C6D0" stop-opacity="0"/>
</linearGradient>
<linearGradient id="paint33_linear" x1="-3.10408" y1="-13.4072" x2="162.415" y2="174.025" gradientUnits="userSpaceOnUse">
<stop stop-color="#C3C6D0"/>
<stop offset="1" stop-color="#C3C6D0" stop-opacity="0"/>
</linearGradient>
<linearGradient id="paint34_linear" x1="-3.10408" y1="-13.4072" x2="162.415" y2="174.025" gradientUnits="userSpaceOnUse">
<stop stop-color="#C3C6D0"/>
<stop offset="1" stop-color="#C3C6D0" stop-opacity="0"/>
</linearGradient>
<linearGradient id="paint35_linear" x1="-3.10408" y1="-13.4072" x2="162.415" y2="174.025" gradientUnits="userSpaceOnUse">
<stop stop-color="#C3C6D0"/>
<stop offset="1" stop-color="#C3C6D0" stop-opacity="0"/>
</linearGradient>
<linearGradient id="paint36_linear" x1="-3.10408" y1="-13.4072" x2="162.415" y2="174.025" gradientUnits="userSpaceOnUse">
<stop stop-color="#C3C6D0"/>
<stop offset="1" stop-color="#C3C6D0" stop-opacity="0"/>
</linearGradient>
<linearGradient id="paint37_linear" x1="-3.10408" y1="-13.4072" x2="162.415" y2="174.025" gradientUnits="userSpaceOnUse">
<stop stop-color="#C3C6D0"/>
<stop offset="1" stop-color="#C3C6D0" stop-opacity="0"/>
</linearGradient>
<linearGradient id="paint38_linear" x1="-3.10408" y1="-13.4072" x2="162.415" y2="174.025" gradientUnits="userSpaceOnUse">
<stop stop-color="#C3C6D0"/>
<stop offset="1" stop-color="#C3C6D0" stop-opacity="0"/>
</linearGradient>
<linearGradient id="paint39_linear" x1="-3.10408" y1="-13.4072" x2="162.415" y2="174.025" gradientUnits="userSpaceOnUse">
<stop stop-color="#C3C6D0"/>
<stop offset="1" stop-color="#C3C6D0" stop-opacity="0"/>
</linearGradient>
<linearGradient id="paint40_linear" x1="-3.10408" y1="-13.4072" x2="162.415" y2="174.025" gradientUnits="userSpaceOnUse">
<stop stop-color="#C3C6D0"/>
<stop offset="1" stop-color="#C3C6D0" stop-opacity="0"/>
</linearGradient>
<linearGradient id="paint41_linear" x1="-3.10408" y1="-13.4072" x2="162.415" y2="174.025" gradientUnits="userSpaceOnUse">
<stop stop-color="#C3C6D0"/>
<stop offset="1" stop-color="#C3C6D0" stop-opacity="0"/>
</linearGradient>
<linearGradient id="paint42_linear" x1="-3.10408" y1="-13.4072" x2="162.415" y2="174.025" gradientUnits="userSpaceOnUse">
<stop stop-color="#C3C6D0"/>
<stop offset="1" stop-color="#C3C6D0" stop-opacity="0"/>
</linearGradient>
<linearGradient id="paint43_linear" x1="-3.10408" y1="-13.4072" x2="162.415" y2="174.025" gradientUnits="userSpaceOnUse">
<stop stop-color="#C3C6D0"/>
<stop offset="1" stop-color="#C3C6D0" stop-opacity="0"/>
</linearGradient>
<linearGradient id="paint44_linear" x1="-3.10408" y1="-13.4072" x2="162.415" y2="174.025" gradientUnits="userSpaceOnUse">
<stop stop-color="#C3C6D0"/>
<stop offset="1" stop-color="#C3C6D0" stop-opacity="0"/>
</linearGradient>
<linearGradient id="paint45_linear" x1="-3.10408" y1="-13.4072" x2="162.415" y2="174.025" gradientUnits="userSpaceOnUse">
<stop stop-color="#C3C6D0"/>
<stop offset="1" stop-color="#C3C6D0" stop-opacity="0"/>
</linearGradient>
<linearGradient id="paint46_linear" x1="-3.10408" y1="-13.4072" x2="162.415" y2="174.025" gradientUnits="userSpaceOnUse">
<stop stop-color="#C3C6D0"/>
<stop offset="1" stop-color="#C3C6D0" stop-opacity="0"/>
</linearGradient>
<linearGradient id="paint47_linear" x1="-3.10408" y1="-13.4072" x2="162.415" y2="174.025" gradientUnits="userSpaceOnUse">
<stop stop-color="#C3C6D0"/>
<stop offset="1" stop-color="#C3C6D0" stop-opacity="0"/>
</linearGradient>
<linearGradient id="paint48_linear" x1="-3.10408" y1="-13.4072" x2="162.415" y2="174.025" gradientUnits="userSpaceOnUse">
<stop stop-color="#C3C6D0"/>
<stop offset="1" stop-color="#C3C6D0" stop-opacity="0"/>
</linearGradient>
</defs>
</svg>
